HIERARCHY
ROOT Hips
{
 OFFSET 0.000000 0.000000 0.000000
 CHANNELS 6 Xposition Yposition Zposition Yrotation Xrotation Zrotation
 JOINT Chest
 {
  OFFSET 0.000000 14.374500 -0.011500
  CHANNELS 3 Yrotation Xrotation Zrotation
  JOINT Chest2
  {
   OFFSET 0.000000 9.203400 0.023400
   CHANNELS 3 Yrotation Xrotation Zrotation
   JOINT Chest3
   {
    OFFSET 0.000000 9.162700 0.000000
    CHANNELS 3 Yrotation Xrotation Zrotation
    JOINT Chest4
    {
     OFFSET 0.000000 9.153300 0.000000
     CHANNELS 3 Yrotation Xrotation Zrotation
     JOINT Neck
     {
      OFFSET 0.000000 13.353600 0.000000
      CHANNELS 3 Yrotation Xrotation Zrotation
      JOINT Head
      {
       OFFSET 0.000000 8.573800 0.049400
       CHANNELS 3 Yrotation Xrotation Zrotation
       End Site
       {
        OFFSET 0.000000 16.219200 0.026100
       }
      }
     }
     JOINT RightCollar
     {
      OFFSET -2.497100 8.876100 0.000000
      CHANNELS 3 Yrotation Xrotation Zrotation
      JOINT RightShoulder
      {
       OFFSET -12.289200 0.000000 0.000000
       CHANNELS 3 Yrotation Xrotation Zrotation
       JOINT RightElbow
       {
        OFFSET 0.000000 -28.194900 0.000000
        CHANNELS 3 Yrotation Xrotation Zrotation
        JOINT RightWrist
        {
         OFFSET 0.000000 -23.009700 0.007900
         CHANNELS 3 Yrotation Xrotation Zrotation
         End Site
         {
          OFFSET 0.000000 -17.151500 0.000000
         }
        }
       }
      }
     }
     JOINT LeftCollar
     {
      OFFSET 2.497100 8.876100 0.000000
      CHANNELS 3 Yrotation Xrotation Zrotation
      JOINT LeftShoulder
      {
       OFFSET 12.289200 0.000000 0.000000
       CHANNELS 3 Yrotation Xrotation Zrotation
       JOINT LeftElbow
       {
        OFFSET 0.000000 -28.194900 0.000000
        CHANNELS 3 Yrotation Xrotation Zrotation
        JOINT LeftWrist
        {
         OFFSET 0.000000 -23.009700 0.007900
         CHANNELS 3 Yrotation Xrotation Zrotation
         End Site
         {
          OFFSET 0.000000 -17.151500 0.000000
         }
        }
       }
      }
     }
    }
   }
  }
 }
 JOINT RightHip
 {
  OFFSET -11.777600 0.056700 0.005700
  CHANNELS 3 Yrotation Xrotation Zrotation
  JOINT RightKnee
  {
   OFFSET 0.000000 -39.966000 -0.004200
   CHANNELS 3 Yrotation Xrotation Zrotation
   JOINT RightAnkle
   {
    OFFSET 0.000000 -41.981900 0.027400
    CHANNELS 3 Yrotation Xrotation Zrotation
    JOINT RightToe
    {
     OFFSET 0.000000 -9.910600 16.950100
     CHANNELS 3 Yrotation Xrotation Zrotation
     End Site
     {
      OFFSET 0.000000 -1.461000 6.191600
     }
    }
   }
  }
 }
 JOINT LeftHip
 {
  OFFSET 11.777600 0.056700 0.005700
  CHANNELS 3 Yrotation Xrotation Zrotation
  JOINT LeftKnee
  {
   OFFSET 0.000000 -39.966000 -0.004200
   CHANNELS 3 Yrotation Xrotation Zrotation
   JOINT LeftAnkle
   {
    OFFSET 0.000000 -41.981900 0.027400
    CHANNELS 3 Yrotation Xrotation Zrotation
    JOINT LeftToe
    {
     OFFSET 0.000000 -9.910600 16.950100
     CHANNELS 3 Yrotation Xrotation Zrotation
     End Site
     {
      OFFSET 0.000000 -1.461000 6.191600
     }
    }
   }
  }
 }
}
MOTION
Frames: 16
Frame Time: 0.008333
0.000000 91.618700 0.000000 0.000000 -5.767877 0.000000 0.000000 11.653817 0.000000 0.000000 -5.885947 0.000000 0.000000 -0.000000 0.000000 0.000000 -0.000000 0.000000 0.000000 12.528835 0.000000 0.000000 0.711642 0.000000 0.000000 -0.000000 0.000000 0.000000 0.000000 -90.000000 0.000000 -2.309062 0.000000 0.000000 2.309062 0.000000 0.000000 -0.000000 0.000000 0.000000 -0.000000 90.000000 0.000000 -2.309062 0.000000 0.000000 2.309062 0.000000 0.000000 8.520406 0.000000 0.000000 1.905762 0.000000 -0.000000 -4.658285 0.000000 0.000000 -0.000000 0.000000 0.000000 8.520406 0.000000 0.000000 1.905762 0.000000 -0.000000 -4.658285 0.000000 0.000000 -0.000000 0.000000
-1.837315 152.734837 87.131353 174.422746 -48.828792 -2.694570 4.519663 29.236105 3.322155 0.649575 5.530874 0.491034 1.048064 8.655457 0.795340 3.256599 23.339498 2.623505 -0.186418 13.844368 -1.226875 0.097633 -11.179659 -1.243336 3.192098 -3.296893 0.057797 7.227214 -19.614565 -12.713756 42.379824 -65.056133 -26.155647 29.065004 29.334413 0.443204 -12.526321 -7.815669 -1.419053 -7.682722 -20.968201 10.892389 -38.730751 -60.679650 16.771138 -18.531482 8.959262 12.232158 7.734739 -28.578757 0.829652 -66.337752 86.228815 -68.919821 3.986586 -23.793392 8.521555 0.081788 -0.247042 0.039256 -3.063698 -29.561789 -2.906277 144.903535 71.838997 156.428773 -4.360309 11.527408 -8.572402 0.230630 -9.575768 -1.315242
-3.442692 145.674550 89.308999 174.623812 -48.749428 -2.954067 4.432777 29.152755 3.438596 0.653823 5.532675 0.488758 1.047241 8.654989 0.795372 3.241695 23.333510 2.627630 -0.157189 13.782815 -1.241987 0.131076 -11.236161 -1.262600 3.205120 -3.307676 0.040596 7.227264 -19.657749 -12.690945 42.313876 -64.982379 -26.069727 29.056547 29.321954 0.436566 -12.518961 -7.861411 -1.414871 -7.662232 -20.923759 10.866332 -38.685211 -60.650916 16.724170 -18.516174 8.934470 12.268012 7.548424 -28.689803 0.937917 -66.824432 86.248839 -69.409316 4.035162 -23.912215 8.523657 0.030342 -0.155837 0.017736 -3.268383 -29.606026 -2.776759 144.865119 71.865970 156.387499 -4.281536 11.545018 -8.517463 0.052453 0.050204 0.030667
-4.770484 139.864445 91.097648 174.750536 -48.707220 -3.114053 4.373765 29.108080 3.506727 0.652018 5.530256 0.488491 1.044562 8.651283 0.795176 3.220844 23.312953 2.628111 -0.114531 13.734706 -1.261775 0.168228 -11.295344 -1.283897 3.228950 -3.296273 0.021505 7.231037 -19.669505 -12.673116 42.287693 -64.921623 -26.035569 29.035041 29.299770 0.420913 -12.494575 -7.855823 -1.428225 -7.654688 -20.906912 10.855080 -38.625351 -60.625330 16.665737 -18.524777 8.909737 12.290485 7.430929 -28.757237 1.005749 -67.286638 86.266701 -69.873448 4.043783 -24.002640 8.524799 0.013592 -0.088249 0.007944 -3.396665 -29.620165 -2.696165 144.832580 71.890611 156.350677 -4.249378 11.575228 -8.492877 0.021388 0.031069 0.012507
-5.734126 135.670253 92.386821 174.810657 -48.687636 -3.186794 4.336634 29.081793 3.534983 0.640406 5.516545 0.490946 1.038434 8.639902 0.793900 3.237016 23.340941 2.619595 -0.087599 13.652742 -1.268523 0.209262 -11.361766 -1.307542 3.206017 -3.372912 -0.000830 7.251620 -19.621914 -12.630916 42.235006 -64.863483 -25.977385 29.019149 29.280776 0.408800 -12.495777 -7.872658 -1.422247 -7.638807 -20.898217 10.837934 -38.510915 -60.575764 16.553603 -18.523104 8.859781 12.342070 7.375690 -28.791912 1.034885 -67.622063 86.282907 -70.210852 4.033766 -24.055955 8.523129 0.006437 -0.055829 0.003763 -3.456019 -29.621861 -2.659011 144.816491 71.909928 156.331588 -4.240270 11.594900 -8.486391 0.015040 0.016388 0.008794
-6.340965 133.021628 93.200886 174.862244 -48.674107 -3.250690 4.306311 29.062997 3.561482 0.638930 5.513389 0.490561 1.040188 8.641357 0.792170 3.225847 23.326479 2.620186 -0.063318 13.629715 -1.280581 0.267871 -11.489730 -1.341581 3.211637 -3.371507 -0.014475 7.261307 -19.634071 -12.613204 42.170920 -64.776644 -25.903691 28.973533 29.245525 0.370272 -12.489270 -7.935725 -1.416225 -7.617661 -20.831058 10.803663 -38.439501 -60.525657 16.481014 -18.484107 8.814719 12.409836 7.327434 -28.814410 1.066417 -67.879039 86.289950 -70.469839 4.020026 -24.105233 8.523202 0.000511 -0.023480 0.000299 -3.505792 -29.616189 -2.628403 144.801580 71.928296 156.316757 -4.227694 11.603623 -8.476241 0.005879 0.003215 0.003437
-6.675822 131.566158 93.647086 174.881411 -48.671443 -3.275067 4.288493 29.055588 3.570326 0.643830 5.514472 0.489219 1.036642 8.638434 0.792411 3.200228 23.297428 2.627878 -0.005625 13.538235 -1.313329 0.305917 -11.554075 -1.367199 3.227859 -3.356024 -0.040329 7.270736 -19.644725 -12.591782 42.144089 -64.737138 -25.867446 28.956178 29.245784 0.363224 -12.464772 -7.969864 -1.436714 -7.605845 -20.798871 10.779417 -38.379360 -60.456483 16.414874 -18.471770 8.772140 12.441845 7.309373 -28.811015 1.085543 -67.911581 86.285311 -70.505323 4.005805 -24.128785 8.523619 0.000404 -0.010933 0.000236 -3.528974 -29.606262 -2.616962 144.785485 71.934525 156.299573 -4.226089 11.599320 -8.478536 0.004686 -0.000837 0.002740
-6.836674 130.872965 93.859114 174.892606 -48.666597 -3.283929 4.277357 29.046390 3.570847 0.644519 5.515372 0.488463 1.023426 8.622930 0.795936 3.205333 23.309570 2.623696 0.035058 13.407167 -1.330076 0.342603 -11.626613 -1.393148 3.219326 -3.396699 -0.055563 7.276778 -19.629602 -12.559412 42.103131 -64.672399 -25.813616 28.925037 29.229222 0.336169 -12.465069 -8.022295 -1.433251 -7.592195 -20.758979 10.758552 -38.340023 -60.395657 16.368777 -18.453160 8.729212 12.490158 7.301808 -28.815337 1.088992 -67.975955 86.295754 -70.575736 3.986208 -24.141943 8.528547 -0.002742 -0.008006 -0.001603 -3.538939 -29.601755 -2.618203 144.795286 71.941489 156.304184 -4.211896 11.591688 -8.475420 0.002087 -0.002387 0.001220
-6.901885 130.588770 93.946092 174.902052 -48.656935 -3.295379 4.263711 29.036156 3.571523 0.642436 5.512009 0.488433 1.029706 8.625212 0.794785 3.198783 23.304762 2.624746 0.068987 13.293745 -1.346164 0.386390 -11.733773 -1.425885 3.210745 -3.484105 -0.076445 7.284368 -19.569429 -12.516938 42.015423 -64.562361 -25.720248 28.886605 29.165082 0.284997 -12.463587 -8.078457 -1.426421 -7.576184 -20.714914 10.735987 -38.309054 -60.336512 16.324490 -18.430431 8.697838 12.553435 7.295301 -28.821660 1.101188 -68.016467 86.288282 -70.619073 3.976190 -24.148694 8.532883 -0.002212 -0.005015 -0.001293 -3.546932 -29.601244 -2.615078 144.786205 71.948836 156.296427 -4.204975 11.584867 -8.476226 0.001007 -0.002653 0.000589
-6.925110 130.490202 93.975417 174.906631 -48.650316 -3.299842 4.249412 29.025320 3.574388 0.643210 5.510665 0.485203 1.026399 8.621561 0.795003 3.182136 23.284611 2.633377 0.113191 13.195749 -1.384281 0.428199 -11.848621 -1.459558 3.230104 -3.464403 -0.101682 7.289940 -19.580496 -12.504588 41.957251 -64.485400 -25.659267 28.858231 29.124599 0.251182 -12.444581 -8.116457 -1.443258 -7.561271 -20.667827 10.715353 -38.284240 -60.291983 16.286128 -18.416244 8.675108 12.588406 7.293343 -28.825467 1.105814 -68.043528 86.283933 -70.649143 3.971527 -24.153343 8.537541 -0.002661 -0.003829 -0.001556 -3.549194 -29.598393 -2.614934 144.770044 71.955628 156.281694 -4.203211 11.580715 -8.476817 0.001039 -0.003038 0.000607
-6.931859 130.461755 93.982928 174.907785 -48.644044 -3.302937 4.247753 29.017219 3.578450 0.638677 5.507785 0.486783 1.021690 8.604559 0.800028 3.183415 23.298724 2.626504 0.146917 13.065410 -1.404116 0.468954 -11.971587 -1.493273 3.216640 -3.513314 -0.117816 7.307501 -19.557873 -12.469729 41.884526 -64.380445 -25.581976 28.802644 29.084925 0.183575 -12.448294 -8.175067 -1.435051 -7.546433 -20.614501 10.694345 -38.267291 -60.273618 16.264655 -18.409929 8.668796 12.603024 7.294823 -28.831366 1.114859 -68.107702 86.277765 -70.712336 3.956557 -24.155341 8.538229 -0.002663 -0.004916 -0.001557 -3.552799 -29.591674 -2.609337 144.746912 71.963302 156.257261 -4.205924 11.572765 -8.476618 0.001616 -0.000982 0.000945
-6.933707 130.455244 93.983386 174.912644 -48.636784 -3.308057 4.244915 29.008478 3.581969 0.636890 5.503730 0.487582 1.020957 8.599123 0.801097 3.181291 23.301814 2.626268 0.181167 12.927638 -1.424960 0.509315 -12.101735 -1.527502 3.194555 -3.638102 -0.157383 7.320092 -19.464023 -12.397155 41.844485 -64.313811 -25.537398 28.779030 29.073553 0.157875 -12.454288 -8.219460 -1.428763 -7.531942 -20.568197 10.676199 -38.260621 -60.214861 16.234180 -18.385165 8.627796 12.653174 7.293830 -28.835920 1.116544 -68.102718 86.278385 -70.707838 3.967339 -24.163408 8.527863 0.000241 -0.006294 0.000141 -3.558461 -29.593166 -2.604794 144.756041 71.970163 156.259295 -4.197161 11.572950 -8.468762 -0.001185 -0.002253 -0.000693
-6.934537 130.454925 93.981214 174.917292 -48.631329 -3.311500 4.242074 29.002899 3.583491 0.636059 5.493806 0.492482 1.019735 8.599024 0.798990 3.177690 23.277573 2.637709 0.213258 12.811824 -1.459387 0.549527 -12.237133 -1.562040 3.186094 -3.682204 -0.188157 7.322348 -19.395595 -12.364111 41.779890 -64.230235 -25.464765 28.732859 29.023459 0.097354 -12.461467 -8.266294 -1.436946 -7.516518 -20.503551 10.654111 -38.234767 -60.157659 16.176910 -18.350916 8.597955 12.715199 7.292728 -28.838032 1.116165 -68.132236 86.279619 -70.735578 3.965671 -24.172563 8.522920 0.000627 -0.007511 0.000366 -3.562893 -29.594295 -2.602760 144.746495 71.971780 156.245773 -4.196486 11.572592 -8.464212 -0.002456 -0.004685 -0.001436
-6.934516 130.454597 93.979377 174.924285 -48.617822 -3.319123 4.238080 28.990066 3.589181 0.635361 5.489974 0.492998 1.019147 8.594712 0.798271 3.176848 23.272821 2.639645 0.246605 12.670642 -1.482821 0.590323 -12.377216 -1.597790 3.176539 -3.759528 -0.207303 7.311834 -19.345363 -12.309925 41.709958 -64.115719 -25.369588 28.686976 28.970127 0.030778 -12.473530 -8.356670 -1.426020 -7.507920 -20.424801 10.627682 -38.149334 -60.045984 16.049016 -18.314678 8.531129 12.809335 7.287427 -28.848144 1.115637 -68.160260 86.280285 -70.761291 3.968111 -24.185001 8.516181 0.000251 -0.008669 0.000147 -3.571287 -29.603630 -2.598783 144.749617 71.976202 156.250464 -4.190925 11.572968 -8.468052 0.000222 -0.006988 0.000130
-6.935387 130.455252 93.976133 174.926478 -48.606536 -3.318812 4.235062 28.981905 3.590913 0.634153 5.486413 0.492430 1.019002 8.592894 0.795431 3.176545 23.271224 2.640173 0.280143 12.518821 -1.503772 0.631966 -12.522492 -1.635882 3.166246 -3.853073 -0.221420 7.249326 -19.337364 -12.217858 41.678165 -63.971967 -25.250344 28.645141 28.926356 -0.035074 -12.483183 -8.439046 -1.413881 -7.495910 -20.359054 10.601928 -38.046762 -59.958737 15.907839 -18.238072 8.477967 12.913659 7.287576 -28.854770 1.113370 -68.177402 86.279762 -70.778436 3.959840 -24.196161 8.513273 -0.001906 -0.009222 -0.001114 -3.576618 -29.603267 -2.596749 144.730484 71.980248 156.228740 -4.188819 11.558614 -8.474106 0.002334 -0.008643 0.001364
-6.935874 130.455484 93.972698 174.932881 -48.590160 -3.323043 4.229633 28.969824 3.590891 0.633347 5.482890 0.492403 1.016835 8.587247 0.799684 3.173257 23.266005 2.643244 0.312590 12.369592 -1.536678 0.674513 -12.671930 -1.675450 3.158762 -3.946436 -0.241123 7.211787 -19.284284 -12.157258 41.617414 -63.863045 -25.131573 28.605807 28.876402 -0.106671 -12.491451 -8.522696 -1.411157 -7.486344 -20.291506 10.577697 -37.886409 -59.883927 15.717934 -18.164785 8.413652 13.006671 7.284135 -28.868174 1.113709 -68.194448 86.279202 -70.797435 3.948097 -24.201742 8.514058 -0.005220 -0.010110 -0.003052 -3.582372 -29.615937 -2.594738 144.731729 71.976748 156.224965 -4.184392 11.549507 -8.467353 -0.000531 -0.009129 -0.000310
